<?xml version="1.0" encoding="utf-8"?>
<!-- Generator: Adobe Illustrator 23.0.6, SVG Export Plug-In . SVG Version: 6.00 Build 0)  -->
<svg width="600px" height="150px" version="1.1" id="Capa_1" xmlns="http://www.w3.org/2000/svg" xmlns:xlink="http://www.w3.org/1999/xlink" x="0px" y="0px"
	 viewBox="0 0 500 110" style="enable-background:new 0 0 500 110;" >
<style type="text/css">
	.st0{fill-rule:evenodd;clip-rule:evenodd;fill:#40BCF4;}
	.st1{fill-rule:evenodd;clip-rule:evenodd;fill:#00E054;}
	.st2{fill-rule:evenodd;clip-rule:evenodd;fill:#FF8000;}
	.st3{fill-rule:evenodd;clip-rule:evenodd;fill:#FFFFFF;}
</style>
<title>letterboxd-logo-h-neg-rgb</title>
<desc>Created with Sketch.</desc>
<g id="Horizontal-Lockup" transform="translate(31.000000, 30.000000)">
	<g id="Dots" transform="translate(0.000000, 11.000000)">
		<ellipse id="Blue" class="st0" cx="409.1" cy="16.5" rx="18" ry="18"/>
		<ellipse id="Green" class="st1" cx="378.5" cy="16.5" rx="18" ry="18"/>
		<ellipse id="Orange" class="st2" cx="348" cy="16.5" rx="18" ry="18"/>
		<path id="Overlap" class="st3" d="M363.2,26c-1.7-2.8-2.7-6-2.7-9.5s1-6.8,2.7-9.5c1.7,2.8,2.7,6,2.7,9.5S365,23.2,363.2,26z"/>
		<path class="st3" d="M393.8,6.9c1.7,2.8,2.7,6,2.7,9.5s-1,6.8-2.7,9.5c-1.7-2.8-2.7-6-2.7-9.5S392.1,9.7,393.8,6.9z"/>
	</g>
	<path id="Letterboxd" class="st3" d="M96,13.1c1.3,0,2.1-0.1,3.3-0.4c2.1-0.3,3-1.2,3.3-4.1c0.2-1.4,0.3-2.6,0.3-4h8.7v8.5h8v9.4
		h-8v8.1c0,5.9,0.9,6.5,5.9,6.5h2.1V47h-5.3c-10.2,0-12.7-3.7-12.7-14.3V22.6h-2.8H87.7v8.1c0,5.9,0.9,6.5,5.9,6.5h2.1V47h-5.3
		c-10.2,0-12.7-3.7-12.7-14.3V22.6h-5.7v-8.8c1.3,0,2.1-0.1,3.3-0.4c2.1-0.3,3-1.2,3.3-4.1c0.2-1.4,0.3-3.2,0.3-4.6h8.7v8.5H96V13.1
		z M5,5.1h10.9v31.5h17.5V47H5V5.1z M53.4,48c-11.7,0-17.1-6.6-17.1-17.1v-1c0-10.9,6.8-17.5,17.3-17.5c11.9,0,16.9,7.8,16.9,17v3.8
		H46.8c0.5,4.1,2.8,6.3,6.9,6.3c3,0,4.6-1.3,5.4-3.2h11.2C68.5,43.5,63.2,48,53.4,48z M46.8,26.5h13.3c-0.5-3.8-2.4-6-6.4-6
		C49.8,20.5,47.5,22.6,46.8,26.5z M139.4,48c-11.7,0-17.1-6.6-17.1-17.1v-1c0-10.9,6.8-17.5,17.3-17.5c11.9,0,16.9,7.8,16.9,17v3.8
		h-23.7c0.5,4.1,2.8,6.3,6.9,6.3c3,0,4.6-1.3,5.4-3.2h11.2C154.4,43.5,149.2,48,139.4,48z M132.8,26.5h13.3c-0.5-3.8-2.4-6-6.4-6
		S133.4,22.6,132.8,26.5z M160.8,47V13h8.5l1.5,7c1.1-5.3,4.5-7.4,10.6-7.4h1.9v11.2h-3.9c-6.2,0-7.7,2.2-7.7,8.2v15.1L160.8,47
		L160.8,47z M197.1,41.4l-0.8,5.7h-9.2V2h10.4v16.6c1.8-3.9,5.2-6.2,9.9-6.2c7.5,0.1,13.1,5.3,13.1,16.8v1.1
		c0,11.5-5.1,17.8-13.4,17.8C201.9,48,198.7,45.4,197.1,41.4z M209.9,30.2v-0.8c0-5.4-2.6-8.1-6.2-8.1c-3.8,0-6.4,3-6.4,8V30
		c0,5.9,2.6,8.7,6.4,8.7C207.6,38.7,209.9,36.2,209.9,30.2z M223.7,30.9v-1.1c0-11.5,7.1-17.5,17-17.5c10.1,0,17,6.1,17,17.5v1.1
		c0,11.3-6.7,17.1-17,17.1C229.7,48,223.7,42.2,223.7,30.9z M247.2,30.8v-0.9c0-5.6-2.3-8.4-6.4-8.4c-3.9,0-6.6,2.8-6.6,8.4v0.9
		c0,5.2,2.6,8,6.5,8S247.2,36.2,247.2,30.8z M274.5,37.5l-6.2,9.6h-12.4l12.4-17.7L257,13h12l5.5,8.6L280,13h11.9l-11.2,16.2
		l12,17.8h-12.1L274.5,37.5z M314.7,41.2c-1.7,4-5.1,6.6-10.2,6.6c-8.1,0-13.2-5.9-13.2-17.6v-1c0-11.4,5.6-16.7,13.3-16.7
		c4.9,0,8.1,2.1,9.8,5.5V2h10.4V47h-9L314.7,41.2z M314.4,30.1v-0.8c0-5.2-2.5-8.1-6.3-8.1c-3.9,0-6.3,2.8-6.3,8.1v0.8
		c0,6.1,2.5,8.6,6.1,8.6C311.9,38.7,314.4,35.9,314.4,30.1z"/>
</g>
</svg>
